<svg width="512" height="512" viewBox="0 0 512 512" fill="none" xmlns="http://www.w3.org/2000/svg">
  <defs>
    <filter id="sticker-shadow" x="-20%" y="-20%" width="140%" height="140%">
      <feGaussianBlur in="SourceAlpha" stdDeviation="8" result="blur"/>
      <feOffset in="blur" dx="0" dy="4" result="offsetBlur"/>
      <feComponentTransfer>
        <feFuncA type="linear" slope="0.2"/>
      </feComponentTransfer>
      <feMerge>
        <feMergeNode/>
        <feMergeNode in="SourceGraphic"/>
      </feMerge>
    </filter>
  </defs>

  <g filter="url(#sticker-shadow)">
    <!-- Borde Blanco Sticker (Background) -->
    <!-- Dibujamos el sol completo más grueso en blanco -->
    <path d="M256 66.5C266.5 66.5 276.5 70.5 284 78L305 99C309.5 103.5 315.5 106 322 106H352C374 106 392 124 392 146V176C392 182.5 394.5 188.5 399 193L420 214C427.5 221.5 431.5 231.5 431.5 242V270C431.5 280.5 427.5 290.5 420 298L399 319C394.5 323.5 392 329.5 392 336V366C392 388 374 406 352 406H322C315.5 406 309.5 408.5 305 413L284 434C276.5 441.5 266.5 445.5 256 445.5C245.5 445.5 235.5 441.5 228 434L207 413C202.5 408.5 196.5 406 190 406H160C138 406 120 388 120 366V336C120 329.5 117.5 323.5 113 319L92 298C84.5 290.5 80.5 280.5 80.5 270V242C80.5 231.5 84.5 221.5 92 214L113 193C117.5 188.5 120 182.5 120 176V146C120 124 138 106 160 106H190C196.5 106 202.5 103.5 207 99L228 78C235.5 70.5 245.5 66.5 256 66.5Z" stroke="white" stroke-width="40" stroke-linejoin="round" fill="white"/>
    
    <!-- Rayos del Sol (Color Anaranjado) -->
    <!-- Mismo path pero con color de relleno y borde marrón -->
    <path d="M256 66.5C266.5 66.5 276.5 70.5 284 78L305 99C309.5 103.5 315.5 106 322 106H352C374 106 392 124 392 146V176C392 182.5 394.5 188.5 399 193L420 214C427.5 221.5 431.5 231.5 431.5 242V270C431.5 280.5 427.5 290.5 420 298L399 319C394.5 323.5 392 329.5 392 336V366C392 388 374 406 352 406H322C315.5 406 309.5 408.5 305 413L284 434C276.5 441.5 266.5 445.5 256 445.5C245.5 445.5 235.5 441.5 228 434L207 413C202.5 408.5 196.5 406 190 406H160C138 406 120 388 120 366V336C120 329.5 117.5 323.5 113 319L92 298C84.5 290.5 80.5 280.5 80.5 270V242C80.5 231.5 84.5 221.5 92 214L113 193C117.5 188.5 120 182.5 120 176V146C120 124 138 106 160 106H190C196.5 106 202.5 103.5 207 99L228 78C235.5 70.5 245.5 66.5 256 66.5Z" fill="#FBBF24" stroke="#78350F" stroke-width="8" stroke-linejoin="round"/>
    
    <!-- Círculo Central de la Cara -->
    <circle cx="256" cy="256" r="120" fill="#FDE047" stroke="#78350F" stroke-width="8"/>
    
    <!-- Brillo / Highlight (Arriba Izquierda) -->
    <path d="M220 180C200 185 185 200 180 220" stroke="#FEF9C3" stroke-width="12" stroke-linecap="round"/>
    <circle cx="200" cy="200" r="15" fill="#FEF9C3" fill-opacity="0.6"/>

    <!-- Cara Kawaii -->
    <!-- Ojos -->
    <circle cx="216" cy="250" r="14" fill="#451A03"/>
    <circle cx="296" cy="250" r="14" fill="#451A03"/>
    
    <!-- Mejillas -->
    <ellipse cx="196" cy="275" rx="14" ry="8" fill="#F472B6" fill-opacity="0.8"/>
    <ellipse cx="316" cy="275" rx="14" ry="8" fill="#F472B6" fill-opacity="0.8"/>

    <!-- Boca -->
    <path d="M240 275C240 275 248 285 256 285C264 285 272 275 272 275" stroke="#451A03" stroke-width="6" stroke-linecap="round" stroke-linejoin="round"/>
  </g>
</svg>